<?xml version="1.0" encoding="UTF-8" standalone="no"?>
<!DOCTYPE svg PUBLIC "-//W3C//DTD SVG 1.1//EN"
 "http://www.w3.org/Graphics/SVG/1.1/DTD/svg11.dtd">
<!-- Generated by graphviz version 2.36.0 (20140111.2315)
 -->
<!-- Title: G Pages: 1 -->
<svg width="762pt" height="464pt"
 viewBox="0.00 0.00 762.00 464.00" xmlns="http://www.w3.org/2000/svg" xmlns:xlink="http://www.w3.org/1999/xlink">
<g id="graph0" class="graph" transform="scale(1 1) rotate(0) translate(4 460)">
<title>G</title>
<polygon fill="white" stroke="none" points="-4,4 -4,-460 758,-460 758,4 -4,4"/>
<g id="clust1" class="cluster"><title>cluster_Global</title>
<path fill="none" stroke="gray" d="M20,-44C20,-44 734,-44 734,-44 740,-44 746,-50 746,-56 746,-56 746,-436 746,-436 746,-442 740,-448 734,-448 734,-448 20,-448 20,-448 14,-448 8,-442 8,-436 8,-436 8,-56 8,-56 8,-50 14,-44 20,-44"/>
<text text-anchor="middle" x="377" y="-435.2" font-family="Times,serif" font-size="11.00" fill="gray">Global</text>
</g>
<g id="clust2" class="cluster"><title>cluster_\com</title>
<path fill="none" stroke="gray" d="M28,-52C28,-52 726,-52 726,-52 732,-52 738,-58 738,-64 738,-64 738,-408 738,-408 738,-414 732,-420 726,-420 726,-420 28,-420 28,-420 22,-420 16,-414 16,-408 16,-408 16,-64 16,-64 16,-58 22,-52 28,-52"/>
<text text-anchor="middle" x="377" y="-407.2" font-family="Times,serif" font-size="11.00" fill="gray">com</text>
</g>
<g id="clust3" class="cluster"><title>cluster_\com\xcitestudios</title>
<path fill="none" stroke="gray" d="M36,-60C36,-60 718,-60 718,-60 724,-60 730,-66 730,-72 730,-72 730,-380 730,-380 730,-386 724,-392 718,-392 718,-392 36,-392 36,-392 30,-392 24,-386 24,-380 24,-380 24,-72 24,-72 24,-66 30,-60 36,-60"/>
<text text-anchor="middle" x="377" y="-379.2" font-family="Times,serif" font-size="11.00" fill="gray">xcitestudios</text>
</g>
<g id="clust4" class="cluster"><title>cluster_\com\xcitestudios\Generic</title>
<path fill="none" stroke="gray" d="M44,-68C44,-68 710,-68 710,-68 716,-68 722,-74 722,-80 722,-80 722,-352 722,-352 722,-358 716,-364 710,-364 710,-364 44,-364 44,-364 38,-364 32,-358 32,-352 32,-352 32,-80 32,-80 32,-74 38,-68 44,-68"/>
<text text-anchor="middle" x="377" y="-351.2" font-family="Times,serif" font-size="11.00" fill="gray">Generic</text>
</g>
<g id="clust5" class="cluster"><title>cluster_\com\xcitestudios\Generic\Data</title>
<path fill="none" stroke="gray" d="M52,-192C52,-192 242,-192 242,-192 248,-192 254,-198 254,-204 254,-204 254,-324 254,-324 254,-330 248,-336 242,-336 242,-336 52,-336 52,-336 46,-336 40,-330 40,-324 40,-324 40,-204 40,-204 40,-198 46,-192 52,-192"/>
<text text-anchor="middle" x="147" y="-323.2" font-family="Times,serif" font-size="11.00" fill="gray">Data</text>
</g>
<g id="clust6" class="cluster"><title>cluster_\com\xcitestudios\Generic\Data\Manipulation</title>
<path fill="none" stroke="gray" d="M60,-200C60,-200 234,-200 234,-200 240,-200 246,-206 246,-212 246,-212 246,-296 246,-296 246,-302 240,-308 234,-308 234,-308 60,-308 60,-308 54,-308 48,-302 48,-296 48,-296 48,-212 48,-212 48,-206 54,-200 60,-200"/>
<text text-anchor="middle" x="147" y="-295.2" font-family="Times,serif" font-size="11.00" fill="gray">Manipulation</text>
</g>
<g id="clust7" class="cluster"><title>cluster_\com\xcitestudios\Generic\Data\Manipulation\Interfaces</title>
<path fill="none" stroke="gray" d="M68,-208C68,-208 226,-208 226,-208 232,-208 238,-214 238,-220 238,-220 238,-268 238,-268 238,-274 232,-280 226,-280 226,-280 68,-280 68,-280 62,-280 56,-274 56,-268 56,-268 56,-220 56,-220 56,-214 62,-208 68,-208"/>
<text text-anchor="middle" x="147" y="-267.2" font-family="Times,serif" font-size="11.00" fill="gray">Interfaces</text>
</g>
<g id="clust8" class="cluster"><title>cluster_\com\xcitestudios\Generic\Interfaces</title>
<path fill="none" stroke="gray" d="M598,-228C598,-228 702,-228 702,-228 708,-228 714,-234 714,-240 714,-240 714,-288 714,-288 714,-294 708,-300 702,-300 702,-300 598,-300 598,-300 592,-300 586,-294 586,-288 586,-288 586,-240 586,-240 586,-234 592,-228 598,-228"/>
<text text-anchor="middle" x="650" y="-287.2" font-family="Times,serif" font-size="11.00" fill="gray">Interfaces</text>
</g>
<g id="clust9" class="cluster"><title>cluster_\com\xcitestudios\Generic\Text</title>
<path fill="none" stroke="gray" d="M74,-76C74,-76 682,-76 682,-76 688,-76 694,-82 694,-88 694,-88 694,-172 694,-172 694,-178 688,-184 682,-184 682,-184 74,-184 74,-184 68,-184 62,-178 62,-172 62,-172 62,-88 62,-88 62,-82 68,-76 74,-76"/>
<text text-anchor="middle" x="378" y="-171.2" font-family="Times,serif" font-size="11.00" fill="gray">Text</text>
</g>
<g id="clust10" class="cluster"><title>cluster_\com\xcitestudios\Generic\Text\Interfaces</title>
<path fill="none" stroke="gray" d="M82,-84C82,-84 518,-84 518,-84 524,-84 530,-90 530,-96 530,-96 530,-144 530,-144 530,-150 524,-156 518,-156 518,-156 82,-156 82,-156 76,-156 70,-150 70,-144 70,-144 70,-96 70,-96 70,-90 76,-84 82,-84"/>
<text text-anchor="middle" x="300" y="-143.2" font-family="Times,serif" font-size="11.00" fill="gray">Interfaces</text>
</g>
<!-- \\com\\xcitestudios\\Generic\\Data\\Manipulation\\Interfaces\\SerializationInterface -->
<g id="node1" class="node"><title>\\com\\xcitestudios\\Generic\\Data\\Manipulation\\Interfaces\\SerializationInterface</title>
<polygon fill="none" stroke="black" points="229.5,-252 64.5,-252 64.5,-216 229.5,-216 229.5,-252"/>
<text text-anchor="middle" x="147" y="-231.2" font-family="Courier,monospace" font-size="11.00">SerializationInterface</text>
</g>
<!-- \\com\\xcitestudios\\Generic\\Interfaces\\ValidInterface -->
<g id="node2" class="node"><title>\\com\\xcitestudios\\Generic\\Interfaces\\ValidInterface</title>
<polygon fill="none" stroke="black" points="705.5,-272 594.5,-272 594.5,-236 705.5,-236 705.5,-272"/>
<text text-anchor="middle" x="650" y="-251.2" font-family="Courier,monospace" font-size="11.00">ValidInterface</text>
</g>
<!-- \\com\\xcitestudios\\Generic\\Text\\Interfaces\\TemplatedInterface -->
<g id="node3" class="node"><title>\\com\\xcitestudios\\Generic\\Text\\Interfaces\\TemplatedInterface</title>
<polygon fill="none" stroke="black" points="216,-128 78,-128 78,-92 216,-92 216,-128"/>
<text text-anchor="middle" x="147" y="-107.2" font-family="Courier,monospace" font-size="11.00">TemplatedInterface</text>
</g>
<!-- \\com\\xcitestudios\\Generic\\Text\\Interfaces\\TemplatedSerializableInterface -->
<g id="node4" class="node"><title>\\com\\xcitestudios\\Generic\\Text\\Interfaces\\TemplatedSerializableInterface</title>
<polygon fill="none" stroke="black" points="521.5,-128 302.5,-128 302.5,-92 521.5,-92 521.5,-128"/>
<text text-anchor="middle" x="412" y="-107.2" font-family="Courier,monospace" font-size="11.00">TemplatedSerializableInterface</text>
</g>
<!-- \\com\\xcitestudios\\Generic\\Text\\Interfaces\\TemplatedSerializableInterface&#45;&gt;\\com\\xcitestudios\\Generic\\Data\\Manipulation\\Interfaces\\SerializationInterface -->
<g id="edge4" class="edge"><title>\\com\\xcitestudios\\Generic\\Text\\Interfaces\\TemplatedSerializableInterface&#45;&gt;\\com\\xcitestudios\\Generic\\Data\\Manipulation\\Interfaces\\SerializationInterface</title>
<path fill="none" stroke="black" d="M372.758,-128.031C325.816,-150.163 246.21,-187.696 195.422,-211.641"/>
<polygon fill="none" stroke="black" points="193.841,-208.517 186.289,-215.948 196.826,-214.849 193.841,-208.517"/>
</g>
<!-- \\com\\xcitestudios\\Generic\\Text\\Interfaces\\TemplatedSerializableInterface&#45;&gt;\\com\\xcitestudios\\Generic\\Text\\Interfaces\\TemplatedInterface -->
<g id="edge3" class="edge"><title>\\com\\xcitestudios\\Generic\\Text\\Interfaces\\TemplatedSerializableInterface&#45;&gt;\\com\\xcitestudios\\Generic\\Text\\Interfaces\\TemplatedInterface</title>
<path fill="none" stroke="black" d="M302.129,-110C276.657,-110 250.018,-110 226.189,-110"/>
<polygon fill="none" stroke="black" points="226.161,-106.5 216.161,-110 226.161,-113.5 226.161,-106.5"/>
</g>
<!-- \\com\\xcitestudios\\Generic\\Text\\Template -->
<g id="node5" class="node"><title>\\com\\xcitestudios\\Generic\\Text\\Template</title>
<polygon fill="none" stroke="black" points="685.5,-124 614.5,-124 614.5,-88 685.5,-88 685.5,-124"/>
<text text-anchor="middle" x="650" y="-103.2" font-family="Courier,monospace" font-size="11.00">Template</text>
</g>
<!-- \\com\\xcitestudios\\Generic\\Text\\Template&#45;&gt;\\com\\xcitestudios\\Generic\\Text\\Interfaces\\TemplatedSerializableInterface -->
<g id="edge1" class="edge"><title>\\com\\xcitestudios\\Generic\\Text\\Template&#45;&gt;\\com\\xcitestudios\\Generic\\Text\\Interfaces\\TemplatedSerializableInterface</title>
<path fill="none" stroke="black" stroke-dasharray="1,5" d="M614.431,-106.586C592.288,-106.961 562.121,-107.473 531.877,-107.985"/>
<polygon fill="none" stroke="black" points="531.568,-104.49 521.629,-108.159 531.686,-111.489 531.568,-104.49"/>
</g>
<!-- \\JsonSerializable -->
<g id="node6" class="node"><title>\\JsonSerializable</title>
<ellipse fill="none" stroke="black" cx="412" cy="-18" rx="70.3881" ry="18"/>
<text text-anchor="middle" x="412" y="-14.3" font-family="Times,serif" font-size="14.00" fill="gray">\JsonSerializable</text>
</g>
<!-- \\com\\xcitestudios\\Generic\\Text\\Template&#45;&gt;\\JsonSerializable -->
<g id="edge2" class="edge"><title>\\com\\xcitestudios\\Generic\\Text\\Template&#45;&gt;\\JsonSerializable</title>
<path fill="none" stroke="black" stroke-dasharray="1,5" d="M614.431,-93.1098C574.269,-78.1344 507.709,-53.3153 462.173,-36.3357"/>
<polygon fill="none" stroke="black" points="463.385,-33.0523 452.792,-32.8378 460.939,-39.6111 463.385,-33.0523"/>
</g>
</g>
</svg>
