<?xml version="1.0" encoding="UTF-8" standalone="no"?>
<!DOCTYPE svg PUBLIC "-//W3C//DTD SVG 1.1//EN"
 "http://www.w3.org/Graphics/SVG/1.1/DTD/svg11.dtd">
<!-- Generated by graphviz version 2.36.0 (20140111.2315)
 -->
<!-- Title: G Pages: 1 -->
<svg width="2272pt" height="688pt"
 viewBox="0.00 0.00 2272.00 688.00" xmlns="http://www.w3.org/2000/svg" xmlns:xlink="http://www.w3.org/1999/xlink">
<g id="graph0" class="graph" transform="scale(1 1) rotate(0) translate(4 684)">
<title>G</title>
<polygon fill="white" stroke="none" points="-4,4 -4,-684 2268,-684 2268,4 -4,4"/>
<g id="clust1" class="cluster"><title>cluster_Global</title>
<path fill="none" stroke="gray" d="M316,-98C316,-98 2244,-98 2244,-98 2250,-98 2256,-104 2256,-110 2256,-110 2256,-660 2256,-660 2256,-666 2250,-672 2244,-672 2244,-672 316,-672 316,-672 310,-672 304,-666 304,-660 304,-660 304,-110 304,-110 304,-104 310,-98 316,-98"/>
<text text-anchor="middle" x="1280" y="-659.2" font-family="Times,serif" font-size="11.00" fill="gray">Global</text>
</g>
<g id="clust2" class="cluster"><title>cluster_\com</title>
<path fill="none" stroke="gray" d="M324,-106C324,-106 2236,-106 2236,-106 2242,-106 2248,-112 2248,-118 2248,-118 2248,-632 2248,-632 2248,-638 2242,-644 2236,-644 2236,-644 324,-644 324,-644 318,-644 312,-638 312,-632 312,-632 312,-118 312,-118 312,-112 318,-106 324,-106"/>
<text text-anchor="middle" x="1280" y="-631.2" font-family="Times,serif" font-size="11.00" fill="gray">com</text>
</g>
<g id="clust3" class="cluster"><title>cluster_\com\xcitestudios</title>
<path fill="none" stroke="gray" d="M332,-114C332,-114 2228,-114 2228,-114 2234,-114 2240,-120 2240,-126 2240,-126 2240,-604 2240,-604 2240,-610 2234,-616 2228,-616 2228,-616 332,-616 332,-616 326,-616 320,-610 320,-604 320,-604 320,-126 320,-126 320,-120 326,-114 332,-114"/>
<text text-anchor="middle" x="1280" y="-603.2" font-family="Times,serif" font-size="11.00" fill="gray">xcitestudios</text>
</g>
<g id="clust4" class="cluster"><title>cluster_\com\xcitestudios\Generic</title>
<path fill="none" stroke="gray" d="M340,-122C340,-122 2220,-122 2220,-122 2226,-122 2232,-128 2232,-134 2232,-134 2232,-576 2232,-576 2232,-582 2226,-588 2220,-588 2220,-588 340,-588 340,-588 334,-588 328,-582 328,-576 328,-576 328,-134 328,-134 328,-128 334,-122 340,-122"/>
<text text-anchor="middle" x="1280" y="-575.2" font-family="Times,serif" font-size="11.00" fill="gray">Generic</text>
</g>
<g id="clust5" class="cluster"><title>cluster_\com\xcitestudios\Generic\Data</title>
<path fill="none" stroke="gray" d="M348,-246C348,-246 1752,-246 1752,-246 1758,-246 1764,-252 1764,-258 1764,-258 1764,-548 1764,-548 1764,-554 1758,-560 1752,-560 1752,-560 348,-560 348,-560 342,-560 336,-554 336,-548 336,-548 336,-258 336,-258 336,-252 342,-246 348,-246"/>
<text text-anchor="middle" x="1050" y="-547.2" font-family="Times,serif" font-size="11.00" fill="gray">Data</text>
</g>
<g id="clust6" class="cluster"><title>cluster_\com\xcitestudios\Generic\Data\KeyValueStorage</title>
<path fill="none" stroke="gray" d="M356,-370C356,-370 1729,-370 1729,-370 1735,-370 1741,-376 1741,-382 1741,-382 1741,-520 1741,-520 1741,-526 1735,-532 1729,-532 1729,-532 356,-532 356,-532 350,-532 344,-526 344,-520 344,-520 344,-382 344,-382 344,-376 350,-370 356,-370"/>
<text text-anchor="middle" x="1042.5" y="-519.2" font-family="Times,serif" font-size="11.00" fill="gray">KeyValueStorage</text>
</g>
<g id="clust7" class="cluster"><title>cluster_\com\xcitestudios\Generic\Data\KeyValueStorage\Exceptions</title>
<path fill="none" stroke="gray" d="M1595,-378C1595,-378 1719,-378 1719,-378 1725,-378 1731,-384 1731,-390 1731,-390 1731,-438 1731,-438 1731,-444 1725,-450 1719,-450 1719,-450 1595,-450 1595,-450 1589,-450 1583,-444 1583,-438 1583,-438 1583,-390 1583,-390 1583,-384 1589,-378 1595,-378"/>
<text text-anchor="middle" x="1657" y="-437.2" font-family="Times,serif" font-size="11.00" fill="gray">Exceptions</text>
</g>
<g id="clust8" class="cluster"><title>cluster_\com\xcitestudios\Generic\Data\KeyValueStorage\Interfaces</title>
<path fill="none" stroke="gray" d="M364,-378C364,-378 1052,-378 1052,-378 1058,-378 1064,-384 1064,-390 1064,-390 1064,-492 1064,-492 1064,-498 1058,-504 1052,-504 1052,-504 364,-504 364,-504 358,-504 352,-498 352,-492 352,-492 352,-390 352,-390 352,-384 358,-378 364,-378"/>
<text text-anchor="middle" x="708" y="-491.2" font-family="Times,serif" font-size="11.00" fill="gray">Interfaces</text>
</g>
<g id="clust9" class="cluster"><title>cluster_\com\xcitestudios\Generic\Data\Manipulation</title>
<path fill="none" stroke="gray" d="M1570,-254C1570,-254 1744,-254 1744,-254 1750,-254 1756,-260 1756,-266 1756,-266 1756,-350 1756,-350 1756,-356 1750,-362 1744,-362 1744,-362 1570,-362 1570,-362 1564,-362 1558,-356 1558,-350 1558,-350 1558,-266 1558,-266 1558,-260 1564,-254 1570,-254"/>
<text text-anchor="middle" x="1657" y="-349.2" font-family="Times,serif" font-size="11.00" fill="gray">Manipulation</text>
</g>
<g id="clust10" class="cluster"><title>cluster_\com\xcitestudios\Generic\Data\Manipulation\Interfaces</title>
<path fill="none" stroke="gray" d="M1578,-262C1578,-262 1736,-262 1736,-262 1742,-262 1748,-268 1748,-274 1748,-274 1748,-322 1748,-322 1748,-328 1742,-334 1736,-334 1736,-334 1578,-334 1578,-334 1572,-334 1566,-328 1566,-322 1566,-322 1566,-274 1566,-274 1566,-268 1572,-262 1578,-262"/>
<text text-anchor="middle" x="1657" y="-321.2" font-family="Times,serif" font-size="11.00" fill="gray">Interfaces</text>
</g>
<g id="clust11" class="cluster"><title>cluster_\com\xcitestudios\Generic\Interfaces</title>
<path fill="none" stroke="gray" d="M2108,-367C2108,-367 2212,-367 2212,-367 2218,-367 2224,-373 2224,-379 2224,-379 2224,-427 2224,-427 2224,-433 2218,-439 2212,-439 2212,-439 2108,-439 2108,-439 2102,-439 2096,-433 2096,-427 2096,-427 2096,-379 2096,-379 2096,-373 2102,-367 2108,-367"/>
<text text-anchor="middle" x="2160" y="-426.2" font-family="Times,serif" font-size="11.00" fill="gray">Interfaces</text>
</g>
<g id="clust12" class="cluster"><title>cluster_\com\xcitestudios\Generic\Text</title>
<path fill="none" stroke="gray" d="M1584,-130C1584,-130 2192,-130 2192,-130 2198,-130 2204,-136 2204,-142 2204,-142 2204,-226 2204,-226 2204,-232 2198,-238 2192,-238 2192,-238 1584,-238 1584,-238 1578,-238 1572,-232 1572,-226 1572,-226 1572,-142 1572,-142 1572,-136 1578,-130 1584,-130"/>
<text text-anchor="middle" x="1888" y="-225.2" font-family="Times,serif" font-size="11.00" fill="gray">Text</text>
</g>
<g id="clust13" class="cluster"><title>cluster_\com\xcitestudios\Generic\Text\Interfaces</title>
<path fill="none" stroke="gray" d="M1592,-138C1592,-138 2028,-138 2028,-138 2034,-138 2040,-144 2040,-150 2040,-150 2040,-198 2040,-198 2040,-204 2034,-210 2028,-210 2028,-210 1592,-210 1592,-210 1586,-210 1580,-204 1580,-198 1580,-198 1580,-150 1580,-150 1580,-144 1586,-138 1592,-138"/>
<text text-anchor="middle" x="1810" y="-197.2" font-family="Times,serif" font-size="11.00" fill="gray">Interfaces</text>
</g>
<!-- \\com\\xcitestudios\\Generic\\Data\\KeyValueStorage\\Exceptions\\NotFoundException -->
<g id="node1" class="node"><title>\\com\\xcitestudios\\Generic\\Data\\KeyValueStorage\\Exceptions\\NotFoundException</title>
<polygon fill="none" stroke="black" points="1722.5,-422 1591.5,-422 1591.5,-386 1722.5,-386 1722.5,-422"/>
<text text-anchor="middle" x="1657" y="-401.2" font-family="Courier,monospace" font-size="11.00">NotFoundException</text>
</g>
<!-- \\Exception -->
<g id="node13" class="node"><title>\\Exception</title>
<ellipse fill="none" stroke="black" cx="1315" cy="-72" rx="48.9926" ry="18"/>
<text text-anchor="middle" x="1315" y="-68.3" font-family="Times,serif" font-size="14.00" fill="gray">\Exception</text>
</g>
<!-- \\com\\xcitestudios\\Generic\\Data\\KeyValueStorage\\Exceptions\\NotFoundException&#45;&gt;\\Exception -->
<g id="edge3" class="edge"><title>\\com\\xcitestudios\\Generic\\Data\\KeyValueStorage\\Exceptions\\NotFoundException&#45;&gt;\\Exception</title>
<path fill="none" stroke="black" d="M1625.06,-385.839C1605.06,-373.47 1578.95,-356.106 1558,-338 1466.46,-258.893 1374.83,-147.126 1335.71,-97.476"/>
<polygon fill="none" stroke="black" points="1338.38,-95.211 1329.46,-89.5011 1332.87,-99.5302 1338.38,-95.211"/>
</g>
<!-- \\Interop\\Container\\Exception\\NotFoundException -->
<g id="node14" class="node"><title>\\Interop\\Container\\Exception\\NotFoundException</title>
<ellipse fill="none" stroke="black" cx="1315" cy="-18" rx="187.367" ry="18"/>
<text text-anchor="middle" x="1315" y="-14.3" font-family="Times,serif" font-size="14.00" fill="gray">\Interop\Container\Exception\NotFoundException</text>
</g>
<!-- \\com\\xcitestudios\\Generic\\Data\\KeyValueStorage\\Exceptions\\NotFoundException&#45;&gt;\\Interop\\Container\\Exception\\NotFoundException -->
<g id="edge4" class="edge"><title>\\com\\xcitestudios\\Generic\\Data\\KeyValueStorage\\Exceptions\\NotFoundException&#45;&gt;\\Interop\\Container\\Exception\\NotFoundException</title>
<path fill="none" stroke="black" stroke-dasharray="1,5" d="M1614.89,-385.848C1594.69,-374.853 1571.79,-358.885 1558,-338 1484.96,-227.355 1597.82,-136.63 1502,-45 1496.93,-40.1514 1491.4,-35.9268 1485.52,-32.2555"/>
<polygon fill="none" stroke="black" points="1487.1,-29.1297 1476.67,-27.2644 1483.66,-35.2264 1487.1,-29.1297"/>
</g>
<!-- \\com\\xcitestudios\\Generic\\Data\\KeyValueStorage\\Interfaces\\CountableIterableStorageInterface -->
<g id="node2" class="node"><title>\\com\\xcitestudios\\Generic\\Data\\KeyValueStorage\\Interfaces\\CountableIterableStorageInterface</title>
<polygon fill="none" stroke="black" points="1055.5,-476 816.5,-476 816.5,-440 1055.5,-440 1055.5,-476"/>
<text text-anchor="middle" x="936" y="-455.2" font-family="Courier,monospace" font-size="11.00">CountableIterableStorageInterface</text>
</g>
<!-- \\com\\xcitestudios\\Generic\\Data\\KeyValueStorage\\Interfaces\\CountableStorageInterface -->
<g id="node3" class="node"><title>\\com\\xcitestudios\\Generic\\Data\\KeyValueStorage\\Interfaces\\CountableStorageInterface</title>
<polygon fill="none" stroke="black" points="743.5,-476 558.5,-476 558.5,-440 743.5,-440 743.5,-476"/>
<text text-anchor="middle" x="651" y="-455.2" font-family="Courier,monospace" font-size="11.00">CountableStorageInterface</text>
</g>
<!-- \\com\\xcitestudios\\Generic\\Data\\KeyValueStorage\\Interfaces\\CountableIterableStorageInterface&#45;&gt;\\com\\xcitestudios\\Generic\\Data\\KeyValueStorage\\Interfaces\\CountableStorageInterface -->
<g id="edge7" class="edge"><title>\\com\\xcitestudios\\Generic\\Data\\KeyValueStorage\\Interfaces\\CountableIterableStorageInterface&#45;&gt;\\com\\xcitestudios\\Generic\\Data\\KeyValueStorage\\Interfaces\\CountableStorageInterface</title>
<path fill="none" stroke="black" d="M816.213,-458C795.509,-458 774.139,-458 753.938,-458"/>
<polygon fill="none" stroke="black" points="753.809,-454.5 743.809,-458 753.809,-461.5 753.809,-454.5"/>
</g>
<!-- \\com\\xcitestudios\\Generic\\Data\\KeyValueStorage\\Interfaces\\IterableStorageInterface -->
<g id="node4" class="node"><title>\\com\\xcitestudios\\Generic\\Data\\KeyValueStorage\\Interfaces\\IterableStorageInterface</title>
<polygon fill="none" stroke="black" points="740.5,-422 561.5,-422 561.5,-386 740.5,-386 740.5,-422"/>
<text text-anchor="middle" x="651" y="-401.2" font-family="Courier,monospace" font-size="11.00">IterableStorageInterface</text>
</g>
<!-- \\com\\xcitestudios\\Generic\\Data\\KeyValueStorage\\Interfaces\\CountableIterableStorageInterface&#45;&gt;\\com\\xcitestudios\\Generic\\Data\\KeyValueStorage\\Interfaces\\IterableStorageInterface -->
<g id="edge8" class="edge"><title>\\com\\xcitestudios\\Generic\\Data\\KeyValueStorage\\Interfaces\\CountableIterableStorageInterface&#45;&gt;\\com\\xcitestudios\\Generic\\Data\\KeyValueStorage\\Interfaces\\IterableStorageInterface</title>
<path fill="none" stroke="black" d="M840.372,-439.944C811.624,-434.458 779.967,-428.418 750.944,-422.88"/>
<polygon fill="none" stroke="black" points="751.276,-419.38 740.797,-420.944 749.964,-426.256 751.276,-419.38"/>
</g>
<!-- \\com\\xcitestudios\\Generic\\Data\\KeyValueStorage\\Interfaces\\StorageInterface -->
<g id="node5" class="node"><title>\\com\\xcitestudios\\Generic\\Data\\KeyValueStorage\\Interfaces\\StorageInterface</title>
<polygon fill="none" stroke="black" points="485.5,-449 360.5,-449 360.5,-413 485.5,-413 485.5,-449"/>
<text text-anchor="middle" x="423" y="-428.2" font-family="Courier,monospace" font-size="11.00">StorageInterface</text>
</g>
<!-- \\com\\xcitestudios\\Generic\\Data\\KeyValueStorage\\Interfaces\\CountableStorageInterface&#45;&gt;\\com\\xcitestudios\\Generic\\Data\\KeyValueStorage\\Interfaces\\StorageInterface -->
<g id="edge9" class="edge"><title>\\com\\xcitestudios\\Generic\\Data\\KeyValueStorage\\Interfaces\\CountableStorageInterface&#45;&gt;\\com\\xcitestudios\\Generic\\Data\\KeyValueStorage\\Interfaces\\StorageInterface</title>
<path fill="none" stroke="black" d="M558.403,-447.057C537.564,-444.567 515.717,-441.957 495.839,-439.583"/>
<polygon fill="none" stroke="black" points="495.983,-436.075 485.639,-438.364 495.153,-443.026 495.983,-436.075"/>
</g>
<!-- \\Countable -->
<g id="node16" class="node"><title>\\Countable</title>
<ellipse fill="none" stroke="black" cx="423" cy="-72" rx="49.2915" ry="18"/>
<text text-anchor="middle" x="423" y="-68.3" font-family="Times,serif" font-size="14.00" fill="gray">\Countable</text>
</g>
<!-- \\com\\xcitestudios\\Generic\\Data\\KeyValueStorage\\Interfaces\\CountableStorageInterface&#45;&gt;\\Countable -->
<g id="edge10" class="edge"><title>\\com\\xcitestudios\\Generic\\Data\\KeyValueStorage\\Interfaces\\CountableStorageInterface&#45;&gt;\\Countable</title>
<path fill="none" stroke="black" d="M570.041,-439.98C565.718,-437.378 561.656,-434.402 558,-431 459.28,-339.123 432.881,-167.647 426.169,-100.244"/>
<polygon fill="none" stroke="black" points="429.626,-99.6222 425.222,-89.9864 422.656,-100.266 429.626,-99.6222"/>
</g>
<!-- \\com\\xcitestudios\\Generic\\Data\\KeyValueStorage\\Interfaces\\IterableStorageInterface&#45;&gt;\\com\\xcitestudios\\Generic\\Data\\KeyValueStorage\\Interfaces\\StorageInterface -->
<g id="edge11" class="edge"><title>\\com\\xcitestudios\\Generic\\Data\\KeyValueStorage\\Interfaces\\IterableStorageInterface&#45;&gt;\\com\\xcitestudios\\Generic\\Data\\KeyValueStorage\\Interfaces\\StorageInterface</title>
<path fill="none" stroke="black" d="M561.327,-414.594C539.542,-417.196 516.489,-419.95 495.621,-422.443"/>
<polygon fill="none" stroke="black" points="495.082,-418.983 485.568,-423.645 495.912,-425.934 495.082,-418.983"/>
</g>
<!-- \\Iterator -->
<g id="node17" class="node"><title>\\Iterator</title>
<ellipse fill="none" stroke="black" cx="423" cy="-18" rx="38.9931" ry="18"/>
<text text-anchor="middle" x="423" y="-14.3" font-family="Times,serif" font-size="14.00" fill="gray">\Iterator</text>
</g>
<!-- \\com\\xcitestudios\\Generic\\Data\\KeyValueStorage\\Interfaces\\IterableStorageInterface&#45;&gt;\\Iterator -->
<g id="edge12" class="edge"><title>\\com\\xcitestudios\\Generic\\Data\\KeyValueStorage\\Interfaces\\IterableStorageInterface&#45;&gt;\\Iterator</title>
<path fill="none" stroke="black" d="M646.486,-385.674C634.51,-327.887 590.118,-147.281 486,-45 480.347,-39.4465 473.364,-34.9445 466.147,-31.3255"/>
<polygon fill="none" stroke="black" points="467.517,-28.1043 456.961,-27.2012 464.65,-34.4902 467.517,-28.1043"/>
</g>
<!-- \\Interop\\Container\\ContainerInterface -->
<g id="node18" class="node"><title>\\Interop\\Container\\ContainerInterface</title>
<ellipse fill="none" stroke="black" cx="144" cy="-431" rx="143.775" ry="18"/>
<text text-anchor="middle" x="144" y="-427.3" font-family="Times,serif" font-size="14.00" fill="gray">\Interop\Container\ContainerInterface</text>
</g>
<!-- \\com\\xcitestudios\\Generic\\Data\\KeyValueStorage\\Interfaces\\StorageInterface&#45;&gt;\\Interop\\Container\\ContainerInterface -->
<g id="edge13" class="edge"><title>\\com\\xcitestudios\\Generic\\Data\\KeyValueStorage\\Interfaces\\StorageInterface&#45;&gt;\\Interop\\Container\\ContainerInterface</title>
<path fill="none" stroke="black" d="M360.181,-431C341.445,-431 319.975,-431 298.013,-431"/>
<polygon fill="none" stroke="black" points="297.896,-427.5 287.896,-431 297.896,-434.5 297.896,-427.5"/>
</g>
<!-- \\com\\xcitestudios\\Generic\\Data\\KeyValueStorage\\ArrayStore -->
<g id="node6" class="node"><title>\\com\\xcitestudios\\Generic\\Data\\KeyValueStorage\\ArrayStore</title>
<polygon fill="none" stroke="black" points="1357,-485 1273,-485 1273,-449 1357,-449 1357,-485"/>
<text text-anchor="middle" x="1315" y="-464.2" font-family="Courier,monospace" font-size="11.00">ArrayStore</text>
</g>
<!-- \\com\\xcitestudios\\Generic\\Data\\KeyValueStorage\\ArrayStore&#45;&gt;\\com\\xcitestudios\\Generic\\Data\\KeyValueStorage\\Interfaces\\CountableIterableStorageInterface -->
<g id="edge1" class="edge"><title>\\com\\xcitestudios\\Generic\\Data\\KeyValueStorage\\ArrayStore&#45;&gt;\\com\\xcitestudios\\Generic\\Data\\KeyValueStorage\\Interfaces\\CountableIterableStorageInterface</title>
<path fill="none" stroke="black" stroke-dasharray="1,5" d="M1272.94,-466.02C1223.54,-464.841 1138.24,-462.804 1065.95,-461.078"/>
<polygon fill="none" stroke="black" points="1065.93,-457.577 1055.85,-460.837 1065.76,-464.575 1065.93,-457.577"/>
</g>
<!-- \\com\\xcitestudios\\Generic\\Data\\KeyValueStorage\\CompressedArrayStore -->
<g id="node7" class="node"><title>\\com\\xcitestudios\\Generic\\Data\\KeyValueStorage\\CompressedArrayStore</title>
<polygon fill="none" stroke="black" points="1733,-494 1581,-494 1581,-458 1733,-458 1733,-494"/>
<text text-anchor="middle" x="1657" y="-473.2" font-family="Courier,monospace" font-size="11.00">CompressedArrayStore</text>
</g>
<!-- \\com\\xcitestudios\\Generic\\Data\\KeyValueStorage\\CompressedArrayStore&#45;&gt;\\com\\xcitestudios\\Generic\\Data\\KeyValueStorage\\ArrayStore -->
<g id="edge2" class="edge"><title>\\com\\xcitestudios\\Generic\\Data\\KeyValueStorage\\CompressedArrayStore&#45;&gt;\\com\\xcitestudios\\Generic\\Data\\KeyValueStorage\\ArrayStore</title>
<path fill="none" stroke="black" d="M1580.96,-474.014C1516.16,-472.298 1424.25,-469.865 1367.47,-468.362"/>
<polygon fill="none" stroke="black" points="1367.38,-464.859 1357.29,-468.093 1367.19,-471.856 1367.38,-464.859"/>
</g>
<!-- \\com\\xcitestudios\\Generic\\Data\\Manipulation\\Interfaces\\SerializationInterface -->
<g id="node8" class="node"><title>\\com\\xcitestudios\\Generic\\Data\\Manipulation\\Interfaces\\SerializationInterface</title>
<polygon fill="none" stroke="black" points="1739.5,-306 1574.5,-306 1574.5,-270 1739.5,-270 1739.5,-306"/>
<text text-anchor="middle" x="1657" y="-285.2" font-family="Courier,monospace" font-size="11.00">SerializationInterface</text>
</g>
<!-- \\com\\xcitestudios\\Generic\\Interfaces\\ValidInterface -->
<g id="node9" class="node"><title>\\com\\xcitestudios\\Generic\\Interfaces\\ValidInterface</title>
<polygon fill="none" stroke="black" points="2215.5,-411 2104.5,-411 2104.5,-375 2215.5,-375 2215.5,-411"/>
<text text-anchor="middle" x="2160" y="-390.2" font-family="Courier,monospace" font-size="11.00">ValidInterface</text>
</g>
<!-- \\com\\xcitestudios\\Generic\\Text\\Interfaces\\TemplatedInterface -->
<g id="node10" class="node"><title>\\com\\xcitestudios\\Generic\\Text\\Interfaces\\TemplatedInterface</title>
<polygon fill="none" stroke="black" points="1726,-182 1588,-182 1588,-146 1726,-146 1726,-182"/>
<text text-anchor="middle" x="1657" y="-161.2" font-family="Courier,monospace" font-size="11.00">TemplatedInterface</text>
</g>
<!-- \\com\\xcitestudios\\Generic\\Text\\Interfaces\\TemplatedSerializableInterface -->
<g id="node11" class="node"><title>\\com\\xcitestudios\\Generic\\Text\\Interfaces\\TemplatedSerializableInterface</title>
<polygon fill="none" stroke="black" points="2031.5,-182 1812.5,-182 1812.5,-146 2031.5,-146 2031.5,-182"/>
<text text-anchor="middle" x="1922" y="-161.2" font-family="Courier,monospace" font-size="11.00">TemplatedSerializableInterface</text>
</g>
<!-- \\com\\xcitestudios\\Generic\\Text\\Interfaces\\TemplatedSerializableInterface&#45;&gt;\\com\\xcitestudios\\Generic\\Data\\Manipulation\\Interfaces\\SerializationInterface -->
<g id="edge15" class="edge"><title>\\com\\xcitestudios\\Generic\\Text\\Interfaces\\TemplatedSerializableInterface&#45;&gt;\\com\\xcitestudios\\Generic\\Data\\Manipulation\\Interfaces\\SerializationInterface</title>
<path fill="none" stroke="black" d="M1882.76,-182.031C1835.82,-204.163 1756.21,-241.696 1705.42,-265.641"/>
<polygon fill="none" stroke="black" points="1703.84,-262.517 1696.29,-269.948 1706.83,-268.849 1703.84,-262.517"/>
</g>
<!-- \\com\\xcitestudios\\Generic\\Text\\Interfaces\\TemplatedSerializableInterface&#45;&gt;\\com\\xcitestudios\\Generic\\Text\\Interfaces\\TemplatedInterface -->
<g id="edge14" class="edge"><title>\\com\\xcitestudios\\Generic\\Text\\Interfaces\\TemplatedSerializableInterface&#45;&gt;\\com\\xcitestudios\\Generic\\Text\\Interfaces\\TemplatedInterface</title>
<path fill="none" stroke="black" d="M1812.13,-164C1786.66,-164 1760.02,-164 1736.19,-164"/>
<polygon fill="none" stroke="black" points="1736.16,-160.5 1726.16,-164 1736.16,-167.5 1736.16,-160.5"/>
</g>
<!-- \\com\\xcitestudios\\Generic\\Text\\Template -->
<g id="node12" class="node"><title>\\com\\xcitestudios\\Generic\\Text\\Template</title>
<polygon fill="none" stroke="black" points="2195.5,-178 2124.5,-178 2124.5,-142 2195.5,-142 2195.5,-178"/>
<text text-anchor="middle" x="2160" y="-157.2" font-family="Courier,monospace" font-size="11.00">Template</text>
</g>
<!-- \\com\\xcitestudios\\Generic\\Text\\Template&#45;&gt;\\com\\xcitestudios\\Generic\\Text\\Interfaces\\TemplatedSerializableInterface -->
<g id="edge5" class="edge"><title>\\com\\xcitestudios\\Generic\\Text\\Template&#45;&gt;\\com\\xcitestudios\\Generic\\Text\\Interfaces\\TemplatedSerializableInterface</title>
<path fill="none" stroke="black" stroke-dasharray="1,5" d="M2124.43,-160.586C2102.29,-160.961 2072.12,-161.473 2041.88,-161.985"/>
<polygon fill="none" stroke="black" points="2041.57,-158.49 2031.63,-162.159 2041.69,-165.489 2041.57,-158.49"/>
</g>
<!-- \\JsonSerializable -->
<g id="node15" class="node"><title>\\JsonSerializable</title>
<ellipse fill="none" stroke="black" cx="1922" cy="-72" rx="70.3881" ry="18"/>
<text text-anchor="middle" x="1922" y="-68.3" font-family="Times,serif" font-size="14.00" fill="gray">\JsonSerializable</text>
</g>
<!-- \\com\\xcitestudios\\Generic\\Text\\Template&#45;&gt;\\JsonSerializable -->
<g id="edge6" class="edge"><title>\\com\\xcitestudios\\Generic\\Text\\Template&#45;&gt;\\JsonSerializable</title>
<path fill="none" stroke="black" stroke-dasharray="1,5" d="M2124.43,-147.11C2084.27,-132.134 2017.71,-107.315 1972.17,-90.3357"/>
<polygon fill="none" stroke="black" points="1973.38,-87.0523 1962.79,-86.8378 1970.94,-93.6111 1973.38,-87.0523"/>
</g>
</g>
</svg>
